# Blender 3.3.1
# www.blender.org
o Icosphere
v 0.000000 -0.581060 -0.000000
v 0.143268 -0.236676 0.035584
v 0.010430 -0.236676 0.147251
v -0.136823 -0.236676 0.055423
v -0.094989 -0.236676 -0.112999
v 0.078116 -0.236676 -0.125259
v 0.086094 0.434363 0.264973
v -0.225400 0.434363 0.163761
v -0.225400 0.434363 -0.163761
v 0.086094 0.434363 -0.264973
v 0.278612 0.434363 -0.000000
v 0.000000 0.778746 -0.000000
v 0.315331 0.418593 -0.066622
v 0.304955 0.445318 -0.064616
v 0.276606 0.464881 -0.059135
v 0.237881 0.472042 -0.051647
v 0.199156 0.464881 -0.044159
v 0.199156 0.372305 -0.044159
v 0.237881 0.365144 -0.051647
v 0.276606 0.372305 -0.059135
v 0.304955 0.391869 -0.064616
v 0.297035 0.418593 -0.125250
v 0.287261 0.445318 -0.121314
v 0.260557 0.464881 -0.110562
v 0.224079 0.472042 -0.095875
v 0.187601 0.464881 -0.081187
v 0.187601 0.372305 -0.081187
v 0.224079 0.365144 -0.095875
v 0.260557 0.372305 -0.110562
v 0.287261 0.391869 -0.121314
v 0.267325 0.418593 -0.179282
v 0.258528 0.445318 -0.173568
v 0.234495 0.464881 -0.157959
v 0.201666 0.472042 -0.136636
v 0.168837 0.464881 -0.115313
v 0.168837 0.372305 -0.115313
v 0.201666 0.365144 -0.136636
v 0.234495 0.372305 -0.157959
v 0.258528 0.391869 -0.173568
v 0.227341 0.418593 -0.226641
v 0.219860 0.445318 -0.219369
v 0.199422 0.464881 -0.199502
v 0.171503 0.472042 -0.172363
v 0.143584 0.464881 -0.145224
v 0.143584 0.372305 -0.145224
v 0.171503 0.365144 -0.172363
v 0.199422 0.372305 -0.199502
v 0.219860 0.391869 -0.219369
v 0.178621 0.418593 -0.265507
v 0.172743 0.445318 -0.256956
v 0.156685 0.464881 -0.233595
v 0.134749 0.472042 -0.201683
v 0.112813 0.464881 -0.169771
v 0.112813 0.372305 -0.169771
v 0.134749 0.365144 -0.201683
v 0.156685 0.372305 -0.233595
v 0.172743 0.391869 -0.256956
v 0.123036 0.418593 -0.294388
v 0.118987 0.445318 -0.284887
v 0.107926 0.464881 -0.258929
v 0.092817 0.472042 -0.223470
v 0.077707 0.464881 -0.188011
v 0.077707 0.372305 -0.188011
v 0.092817 0.365144 -0.223470
v 0.107926 0.372305 -0.258929
v 0.118987 0.391869 -0.284887
v 0.062723 0.418593 -0.312172
v 0.060659 0.445318 -0.302086
v 0.055020 0.464881 -0.274529
v 0.047318 0.472042 -0.236886
v 0.039615 0.464881 -0.199244
v 0.039615 0.372305 -0.199244
v 0.047318 0.365144 -0.236886
v 0.055020 0.372305 -0.274529
v 0.060659 0.391869 -0.302086
v 0.000000 0.418593 -0.318177
v 0.000000 0.445318 -0.307893
v 0.000000 0.464881 -0.279797
v 0.000000 0.472042 -0.241417
v 0.000000 0.464881 -0.203036
v 0.000000 0.372305 -0.203036
v 0.000000 0.365144 -0.241417
v 0.000000 0.372305 -0.279797
v 0.000000 0.391869 -0.307893
v -0.062723 0.418593 -0.312172
v -0.060659 0.445318 -0.302086
v -0.055020 0.464881 -0.274529
v -0.047318 0.472042 -0.236886
v -0.039615 0.464881 -0.199244
v -0.039615 0.372305 -0.199244
v -0.047318 0.365144 -0.236886
v -0.055020 0.372305 -0.274529
v -0.060659 0.391869 -0.302086
v -0.123036 0.418593 -0.294388
v -0.118987 0.445318 -0.284887
v -0.107926 0.464881 -0.258929
v -0.092817 0.472042 -0.223470
v -0.077707 0.464881 -0.188011
v -0.077707 0.372305 -0.188011
v -0.092817 0.365144 -0.223470
v -0.107926 0.372305 -0.258929
v -0.118987 0.391869 -0.284887
v -0.178621 0.418593 -0.265507
v -0.172743 0.445318 -0.256956
v -0.156685 0.464881 -0.233595
v -0.134749 0.472042 -0.201683
v -0.112813 0.464881 -0.169771
v -0.112813 0.372305 -0.169771
v -0.134749 0.365144 -0.201683
v -0.156685 0.372305 -0.233595
v -0.172743 0.391869 -0.256956
v -0.227341 0.418593 -0.226641
v -0.219860 0.445318 -0.219369
v -0.199422 0.464881 -0.199502
v -0.171503 0.472042 -0.172363
v -0.143584 0.464881 -0.145224
v -0.143584 0.372305 -0.145224
v -0.171503 0.365144 -0.172363
v -0.199422 0.372305 -0.199502
v -0.219860 0.391869 -0.219369
v -0.267325 0.418593 -0.179282
v -0.258528 0.445318 -0.173568
v -0.234495 0.464881 -0.157959
v -0.201666 0.472042 -0.136636
v -0.168837 0.464881 -0.115313
v -0.168837 0.372305 -0.115313
v -0.201666 0.365144 -0.136636
v -0.234495 0.372305 -0.157959
v -0.258528 0.391869 -0.173568
v -0.297035 0.418593 -0.125250
v -0.287261 0.445318 -0.121315
v -0.260557 0.464881 -0.110563
v -0.224079 0.472042 -0.095875
v -0.187601 0.464881 -0.081187
v -0.187601 0.372305 -0.081187
v -0.224079 0.365144 -0.095875
v -0.260557 0.372305 -0.110563
v -0.287261 0.391869 -0.121315
v -0.315331 0.418593 -0.066622
v -0.304955 0.445318 -0.064616
v -0.276606 0.464881 -0.059135
v -0.237881 0.472042 -0.051647
v -0.199156 0.464881 -0.044159
v -0.199156 0.372305 -0.044159
v -0.237881 0.365144 -0.051647
v -0.276606 0.372305 -0.059135
v -0.304955 0.391869 -0.064616
vn -0.0000 -1.0000 -0.0000
vn 0.9243 -0.3043 0.2304
vn 0.0665 -0.3043 0.9502
vn 0.5047 -0.3043 -0.8079
vn -0.8832 -0.3043 0.3569
vn -0.6123 -0.3043 -0.7297
vn 0.9750 0.2221 -0.0001
vn 0.3014 0.2221 0.9273
vn -0.7887 0.2221 0.5732
vn -0.7889 0.2221 -0.5730
vn 0.3012 0.2221 -0.9273
vn -0.0000 1.0000 -0.0000
vn 0.9202 -0.0000 -0.3914
vn 0.7276 0.4863 0.4838
vn 0.9044 -0.0000 0.4267
vn 0.7250 0.6156 -0.3087
vn 0.4150 0.7019 0.5789
vn 0.3588 0.9208 -0.1531
vn 0.1362 0.7437 0.6545
vn 0.0104 0.9999 -0.0047
vn 0.0180 0.6746 0.7380
vn 0.0180 -0.6746 0.7380
vn 0.0104 -0.9999 -0.0047
vn 0.1362 -0.7437 0.6545
vn 0.3588 -0.9208 -0.1531
vn 0.4150 -0.7019 0.5789
vn 0.7250 -0.6156 -0.3087
vn 0.7276 -0.4863 0.4838
vn 0.8246 -0.0000 -0.5658
vn 0.6504 0.6143 -0.4468
vn 0.3224 0.9202 -0.2219
vn 0.0092 0.9999 -0.0067
vn -0.1648 0.9838 0.0704
vn -0.1648 -0.9838 0.0704
vn 0.0092 -0.9999 -0.0067
vn 0.3224 -0.9202 -0.2219
vn 0.6504 -0.6143 -0.4468
vn 0.6977 -0.0000 -0.7164
vn 0.5511 0.6126 -0.5665
vn 0.2737 0.9196 -0.2819
vn 0.0077 0.9999 -0.0083
vn -0.1482 0.9837 0.1022
vn -0.1482 -0.9837 0.1022
vn 0.0077 -0.9999 -0.0083
vn 0.2737 -0.9196 -0.2819
vn 0.5511 -0.6126 -0.5665
vn 0.5454 -0.0000 -0.8382
vn 0.4314 0.6111 -0.6637
vn 0.2147 0.9189 -0.3309
vn 0.0059 0.9999 -0.0096
vn -0.1259 0.9835 0.1300
vn -0.1259 -0.9835 0.1300
vn 0.0059 -0.9999 -0.0096
vn 0.2147 -0.9189 -0.3309
vn 0.4314 -0.6111 -0.6637
vn 0.3741 -0.0000 -0.9274
vn 0.2962 0.6097 -0.7352
vn 0.1476 0.9184 -0.3671
vn 0.0040 0.9999 -0.0105
vn -0.0989 0.9833 0.1527
vn -0.0989 -0.9833 0.1527
vn 0.0040 -0.9999 -0.0105
vn 0.1476 -0.9184 -0.3671
vn 0.2962 -0.6097 -0.7352
vn 0.1902 -0.0000 -0.9818
vn 0.1507 0.6088 -0.7789
vn 0.0752 0.9180 -0.3893
vn 0.0020 0.9999 -0.0110
vn -0.0680 0.9832 0.1696
vn -0.0680 -0.9832 0.1696
vn 0.0020 -0.9999 -0.0110
vn 0.0752 -0.9180 -0.3893
vn 0.1507 -0.6088 -0.7789
vn -0.0000 -0.0000 -1.0000
vn -0.0000 0.6085 -0.7935
vn -0.0000 0.9179 -0.3968
vn -0.0000 0.9999 -0.0111
vn -0.0347 0.9831 0.1799
vn -0.0347 -0.9831 0.1799
vn -0.0000 -0.9999 -0.0111
vn -0.0000 -0.9179 -0.3968
vn -0.0000 -0.6085 -0.7935
vn -0.1507 0.6088 -0.7789
vn -0.0752 0.9180 -0.3893
vn -0.0020 0.9999 -0.0110
vn 0.0347 0.9831 0.1799
vn -0.0000 0.9830 0.1834
vn 0.0347 -0.9831 0.1799
vn -0.0000 -0.9830 0.1834
vn -0.0020 -0.9999 -0.0110
vn -0.0752 -0.9180 -0.3893
vn -0.1507 -0.6088 -0.7789
vn -0.1902 -0.0000 -0.9818
vn -0.2962 0.6097 -0.7352
vn -0.1476 0.9184 -0.3671
vn -0.0040 0.9999 -0.0105
vn 0.0680 0.9832 0.1696
vn 0.0680 -0.9832 0.1696
vn -0.0040 -0.9999 -0.0105
vn -0.1476 -0.9184 -0.3671
vn -0.2962 -0.6097 -0.7352
vn -0.3741 -0.0000 -0.9274
vn -0.4314 0.6111 -0.6637
vn -0.2147 0.9189 -0.3309
vn -0.0059 0.9999 -0.0096
vn 0.0989 0.9833 0.1527
vn 0.0989 -0.9833 0.1527
vn -0.0059 -0.9999 -0.0096
vn -0.2147 -0.9189 -0.3309
vn -0.4314 -0.6111 -0.6637
vn -0.5454 -0.0000 -0.8382
vn -0.5511 0.6126 -0.5665
vn -0.2737 0.9196 -0.2819
vn -0.0077 0.9999 -0.0083
vn 0.1259 0.9835 0.1300
vn 0.1259 -0.9835 0.1300
vn -0.0077 -0.9999 -0.0083
vn -0.2737 -0.9196 -0.2819
vn -0.5511 -0.6126 -0.5665
vn -0.6977 -0.0000 -0.7164
vn -0.6504 0.6143 -0.4468
vn -0.3224 0.9202 -0.2219
vn -0.0092 0.9999 -0.0067
vn 0.1482 0.9837 0.1022
vn 0.1482 -0.9837 0.1022
vn -0.0092 -0.9999 -0.0067
vn -0.3224 -0.9202 -0.2219
vn -0.6504 -0.6143 -0.4468
vn -0.8246 -0.0000 -0.5658
vn -0.7250 0.6156 -0.3087
vn -0.3588 0.9208 -0.1531
vn -0.0104 0.9999 -0.0047
vn 0.1648 0.9838 0.0704
vn 0.1648 -0.9838 0.0704
vn -0.0104 -0.9999 -0.0047
vn -0.3588 -0.9208 -0.1531
vn -0.7250 -0.6156 -0.3087
vn -0.9202 -0.0000 -0.3914
vn -0.7276 0.4863 0.4838
vn -0.4150 0.7019 0.5789
vn -0.1362 0.7437 0.6545
vn -0.0180 0.6746 0.7380
vn -0.0180 -0.6746 0.7380
vn -0.1362 -0.7437 0.6545
vn -0.4150 -0.7019 0.5789
vn -0.7276 -0.4863 0.4838
vn -0.9044 -0.0000 0.4267
s 1
f 1//1 2//2 3//3
f 2//2 1//1 6//4
f 1//1 3//3 4//5
f 1//1 4//5 5//6
f 1//1 5//6 6//4
f 2//2 6//4 11//7
f 3//3 2//2 7//8
f 4//5 3//3 8//9
f 5//6 4//5 9//10
f 6//4 5//6 10//11
f 2//2 11//7 7//8
f 3//3 7//8 8//9
f 4//5 8//9 9//10
f 5//6 9//10 10//11
f 6//4 10//11 11//7
f 7//8 11//7 12//12
f 8//9 7//8 12//12
f 9//10 8//9 12//12
f 10//11 9//10 12//12
f 11//7 10//11 12//12
f 22//13 14//14 13//15
f 23//16 15//17 14//14
f 24//18 16//19 15//17
f 25//20 17//21 16//19
f 18//22 28//23 19//24
f 19//24 29//25 20//26
f 20//26 30//27 21//28
f 21//28 22//13 13//15
f 31//29 23//16 22//13
f 32//30 24//18 23//16
f 33//31 25//20 24//18
f 34//32 26//33 25//20
f 27//34 37//35 28//23
f 28//23 38//36 29//25
f 29//25 39//37 30//27
f 30//27 31//29 22//13
f 40//38 32//30 31//29
f 41//39 33//31 32//30
f 42//40 34//32 33//31
f 43//41 35//42 34//32
f 36//43 46//44 37//35
f 37//35 47//45 38//36
f 38//36 48//46 39//37
f 39//37 40//38 31//29
f 49//47 41//39 40//38
f 50//48 42//40 41//39
f 51//49 43//41 42//40
f 52//50 44//51 43//41
f 45//52 55//53 46//44
f 46//44 56//54 47//45
f 47//45 57//55 48//46
f 48//46 49//47 40//38
f 58//56 50//48 49//47
f 59//57 51//49 50//48
f 60//58 52//50 51//49
f 61//59 53//60 52//50
f 54//61 64//62 55//53
f 55//53 65//63 56//54
f 56//54 66//64 57//55
f 57//55 58//56 49//47
f 67//65 59//57 58//56
f 68//66 60//58 59//57
f 69//67 61//59 60//58
f 70//68 62//69 61//59
f 63//70 73//71 64//62
f 64//62 74//72 65//63
f 65//63 75//73 66//64
f 66//64 67//65 58//56
f 76//74 68//66 67//65
f 77//75 69//67 68//66
f 78//76 70//68 69//67
f 79//77 71//78 70//68
f 72//79 82//80 73//71
f 73//71 83//81 74//72
f 74//72 84//82 75//73
f 75//73 76//74 67//65
f 76//74 86//83 77//75
f 77//75 87//84 78//76
f 78//76 88//85 79//77
f 79//77 89//86 80//87
f 90//88 82//80 81//89
f 91//90 83//81 82//80
f 92//91 84//82 83//81
f 93//92 76//74 84//82
f 85//93 95//94 86//83
f 86//83 96//95 87//84
f 87//84 97//96 88//85
f 88//85 98//97 89//86
f 99//98 91//90 90//88
f 100//99 92//91 91//90
f 101//100 93//92 92//91
f 102//101 85//93 93//92
f 94//102 104//103 95//94
f 95//94 105//104 96//95
f 96//95 106//105 97//96
f 97//96 107//106 98//97
f 108//107 100//99 99//98
f 109//108 101//100 100//99
f 110//109 102//101 101//100
f 111//110 94//102 102//101
f 103//111 113//112 104//103
f 104//103 114//113 105//104
f 105//104 115//114 106//105
f 106//105 116//115 107//106
f 117//116 109//108 108//107
f 118//117 110//109 109//108
f 119//118 111//110 110//109
f 120//119 103//111 111//110
f 112//120 122//121 113//112
f 113//112 123//122 114//113
f 114//113 124//123 115//114
f 115//114 125//124 116//115
f 126//125 118//117 117//116
f 127//126 119//118 118//117
f 128//127 120//119 119//118
f 129//128 112//120 120//119
f 121//129 131//130 122//121
f 122//121 132//131 123//122
f 123//122 133//132 124//123
f 124//123 134//133 125//124
f 135//134 127//126 126//125
f 136//135 128//127 127//126
f 137//136 129//128 128//127
f 138//137 121//129 129//128
f 130//138 140//139 131//130
f 131//130 141//140 132//131
f 132//131 142//141 133//132
f 133//132 143//142 134//133
f 144//143 136//135 135//134
f 145//144 137//136 136//135
f 146//145 138//137 137//136
f 147//146 130//138 138//137
f 139//147 144//143 142//141
f 15//17 19//24 21//28
f 22//13 23//16 14//14
f 23//16 24//18 15//17
f 24//18 25//20 16//19
f 25//20 26//33 17//21
f 18//22 27//34 28//23
f 19//24 28//23 29//25
f 20//26 29//25 30//27
f 21//28 30//27 22//13
f 31//29 32//30 23//16
f 32//30 33//31 24//18
f 33//31 34//32 25//20
f 34//32 35//42 26//33
f 27//34 36//43 37//35
f 28//23 37//35 38//36
f 29//25 38//36 39//37
f 30//27 39//37 31//29
f 40//38 41//39 32//30
f 41//39 42//40 33//31
f 42//40 43//41 34//32
f 43//41 44//51 35//42
f 36//43 45//52 46//44
f 37//35 46//44 47//45
f 38//36 47//45 48//46
f 39//37 48//46 40//38
f 49//47 50//48 41//39
f 50//48 51//49 42//40
f 51//49 52//50 43//41
f 52//50 53//60 44//51
f 45//52 54//61 55//53
f 46//44 55//53 56//54
f 47//45 56//54 57//55
f 48//46 57//55 49//47
f 58//56 59//57 50//48
f 59//57 60//58 51//49
f 60//58 61//59 52//50
f 61//59 62//69 53//60
f 54//61 63//70 64//62
f 55//53 64//62 65//63
f 56//54 65//63 66//64
f 57//55 66//64 58//56
f 67//65 68//66 59//57
f 68//66 69//67 60//58
f 69//67 70//68 61//59
f 70//68 71//78 62//69
f 63//70 72//79 73//71
f 64//62 73//71 74//72
f 65//63 74//72 75//73
f 66//64 75//73 67//65
f 76//74 77//75 68//66
f 77//75 78//76 69//67
f 78//76 79//77 70//68
f 79//77 80//87 71//78
f 72//79 81//89 82//80
f 73//71 82//80 83//81
f 74//72 83//81 84//82
f 75//73 84//82 76//74
f 76//74 85//93 86//83
f 77//75 86//83 87//84
f 78//76 87//84 88//85
f 79//77 88//85 89//86
f 90//88 91//90 82//80
f 91//90 92//91 83//81
f 92//91 93//92 84//82
f 93//92 85//93 76//74
f 85//93 94//102 95//94
f 86//83 95//94 96//95
f 87//84 96//95 97//96
f 88//85 97//96 98//97
f 99//98 100//99 91//90
f 100//99 101//100 92//91
f 101//100 102//101 93//92
f 102//101 94//102 85//93
f 94//102 103//111 104//103
f 95//94 104//103 105//104
f 96//95 105//104 106//105
f 97//96 106//105 107//106
f 108//107 109//108 100//99
f 109//108 110//109 101//100
f 110//109 111//110 102//101
f 111//110 103//111 94//102
f 103//111 112//120 113//112
f 104//103 113//112 114//113
f 105//104 114//113 115//114
f 106//105 115//114 116//115
f 117//116 118//117 109//108
f 118//117 119//118 110//109
f 119//118 120//119 111//110
f 120//119 112//120 103//111
f 112//120 121//129 122//121
f 113//112 122//121 123//122
f 114//113 123//122 124//123
f 115//114 124//123 125//124
f 126//125 127//126 118//117
f 127//126 128//127 119//118
f 128//127 129//128 120//119
f 129//128 121//129 112//120
f 121//129 130//138 131//130
f 122//121 131//130 132//131
f 123//122 132//131 133//132
f 124//123 133//132 134//133
f 135//134 136//135 127//126
f 136//135 137//136 128//127
f 137//136 138//137 129//128
f 138//137 130//138 121//129
f 130//138 139//147 140//139
f 131//130 140//139 141//140
f 132//131 141//140 142//141
f 133//132 142//141 143//142
f 144//143 145//144 136//135
f 145//144 146//145 137//136
f 146//145 147//146 138//137
f 147//146 139//147 130//138
f 141//140 140//139 139//147
f 139//147 147//146 146//145
f 146//145 145//144 144//143
f 144//143 143//142 142//141
f 142//141 141//140 139//147
f 139//147 146//145 144//143
f 13//15 14//14 15//17
f 15//17 16//19 17//21
f 17//21 18//22 19//24
f 19//24 20//26 21//28
f 21//28 13//15 15//17
f 15//17 17//21 19//24
