# Blender 3.3.1
# www.blender.org
o Cube
v -1.000000 -1.000000 1.000000
v -1.000000 1.000000 1.000000
v -1.000000 -1.000000 -1.000000
v 1.000000 -1.000000 1.000000
v 1.000000 1.000000 1.000000
v 1.000000 -1.000000 -1.000000
v -1.000000 1.000000 0.639058
v -1.000000 -0.639058 -1.000000
v -1.000000 0.988049 0.441491
v -1.000000 0.952372 0.246806
v -1.000000 0.893488 0.057840
v -1.000000 0.812256 -0.122650
v -1.000000 0.709860 -0.292033
v -1.000000 0.587795 -0.447838
v -1.000000 0.447838 -0.587795
v -1.000000 0.292033 -0.709860
v -1.000000 0.122650 -0.812256
v -1.000000 -0.057840 -0.893488
v -1.000000 -0.246806 -0.952372
v -1.000000 -0.441491 -0.988049
v 1.000000 -0.639058 -1.000000
v 1.000000 1.000000 0.639058
v 1.000000 -0.441491 -0.988049
v 1.000000 -0.246806 -0.952372
v 1.000000 -0.057840 -0.893488
v 1.000000 0.122650 -0.812256
v 1.000000 0.292033 -0.709860
v 1.000000 0.447838 -0.587795
v 1.000000 0.587795 -0.447838
v 1.000000 0.709860 -0.292033
v 1.000000 0.812256 -0.122650
v 1.000000 0.893488 0.057840
v 1.000000 0.952372 0.246806
v 1.000000 0.988049 0.441491
vn -0.0000 0.0302 -0.9995
vn -0.0000 -0.0000 -1.0000
vn 1.0000 -0.0000 -0.0000
vn -0.0000 -0.0000 1.0000
vn -0.0000 -1.0000 -0.0000
vn -1.0000 -0.0000 -0.0000
vn -0.0000 0.9995 -0.0302
vn -0.0000 0.9927 -0.1205
vn -0.0000 0.9709 -0.2393
vn -0.0000 0.9350 -0.3546
vn -0.0000 0.8855 -0.4647
vn -0.0000 0.8230 -0.5681
vn -0.0000 0.7485 -0.6631
vn -0.0000 0.6631 -0.7485
vn -0.0000 0.5681 -0.8230
vn -0.0000 0.4647 -0.8855
vn -0.0000 0.3546 -0.9350
vn -0.0000 0.2393 -0.9709
vn -0.0000 0.1205 -0.9927
vn -0.0000 1.0000 -0.0000
s 1
f 8//1 6//2 3//2
f 21//3 30//3 34//3
f 5//4 1//4 4//4
f 6//5 1//5 3//5
f 2//6 15//6 19//6
f 22//7 9//8 7//7
f 34//8 10//9 9//8
f 33//9 11//10 10//9
f 32//10 12//11 11//10
f 31//11 13//12 12//11
f 30//12 14//13 13//12
f 29//13 15//14 14//13
f 28//14 16//15 15//14
f 27//15 17//16 16//15
f 26//16 18//17 17//16
f 25//17 19//18 18//17
f 24//18 20//19 19//18
f 23//19 8//1 20//19
f 7//7 5//20 22//7
f 8//1 21//1 6//2
f 4//3 6//3 21//3
f 21//3 23//3 24//3
f 24//3 25//3 26//3
f 26//3 27//3 28//3
f 28//3 29//3 30//3
f 30//3 31//3 32//3
f 32//3 33//3 34//3
f 34//3 22//3 5//3
f 5//3 4//3 21//3
f 21//3 24//3 26//3
f 26//3 28//3 30//3
f 30//3 32//3 34//3
f 34//3 5//3 21//3
f 21//3 26//3 30//3
f 5//4 2//4 1//4
f 6//5 4//5 1//5
f 3//6 1//6 2//6
f 2//6 7//6 9//6
f 9//6 10//6 11//6
f 11//6 12//6 13//6
f 13//6 14//6 15//6
f 15//6 16//6 17//6
f 17//6 18//6 19//6
f 19//6 20//6 8//6
f 8//6 3//6 2//6
f 2//6 9//6 11//6
f 11//6 13//6 15//6
f 15//6 17//6 19//6
f 19//6 8//6 2//6
f 2//6 11//6 15//6
f 22//7 34//8 9//8
f 34//8 33//9 10//9
f 33//9 32//10 11//10
f 32//10 31//11 12//11
f 31//11 30//12 13//12
f 30//12 29//13 14//13
f 29//13 28//14 15//14
f 28//14 27//15 16//15
f 27//15 26//16 17//16
f 26//16 25//17 18//17
f 25//17 24//18 19//18
f 24//18 23//19 20//19
f 23//19 21//1 8//1
f 7//7 2//20 5//20
