# Blender 3.3.1
# www.blender.org
o Cylinder
v 0.000000 -0.506863 -0.484809
v 0.094582 -0.506863 -0.475494
v 0.185528 -0.506863 -0.447905
v 0.269345 -0.506863 -0.403104
v 0.342812 -0.506863 -0.342812
v 0.403104 -0.506863 -0.269345
v 0.447905 -0.506863 -0.185528
v 0.475494 -0.506863 -0.094582
v 0.484809 -0.506863 0.000000
v 0.475494 -0.506863 0.094582
v 0.447905 -0.506863 0.185528
v 0.403104 -0.506863 0.269345
v 0.342812 -0.506863 0.342812
v 0.269345 -0.506863 0.403104
v 0.185528 -0.506863 0.447905
v 0.094582 -0.506863 0.475494
v 0.000000 -0.506863 0.484809
v -0.094582 -0.506863 0.475494
v -0.185528 -0.506863 0.447905
v -0.269345 -0.506863 0.403104
v -0.342812 -0.506863 0.342812
v -0.403104 -0.506863 0.269345
v -0.447905 -0.506863 0.185528
v -0.475494 -0.506863 0.094582
v -0.484809 -0.506863 0.000000
v -0.475494 -0.506863 -0.094582
v -0.447905 -0.506863 -0.185528
v -0.403104 -0.506863 -0.269345
v -0.342812 -0.506863 -0.342812
v -0.269345 -0.506863 -0.403104
v -0.185528 -0.506863 -0.447905
v -0.094582 -0.506863 -0.475494
v -0.121293 0.506863 -0.609780
v -0.237925 0.506863 -0.574400
v -0.345413 0.506863 -0.516947
v -0.439627 0.506863 -0.439627
v -0.516947 0.506863 -0.345413
v -0.574400 0.506863 -0.237925
v -0.609780 0.506863 -0.121293
v -0.621727 0.506863 -0.000000
v -0.609780 0.506863 0.121293
v -0.574400 0.506863 0.237925
v -0.516947 0.506863 0.345413
v -0.439627 0.506863 0.439627
v -0.345413 0.506863 0.516947
v -0.237925 0.506863 0.574400
v -0.121293 0.506863 0.609780
v 0.000000 0.506863 0.621727
v 0.121293 0.506863 0.609780
v 0.237925 0.506863 0.574400
v 0.345413 0.506863 0.516947
v 0.439627 0.506863 0.439627
v 0.516947 0.506863 0.345413
v 0.574400 0.506863 0.237925
v 0.609780 0.506863 0.121293
v 0.621727 0.506863 -0.000000
v 0.609780 0.506863 -0.121293
v 0.574400 0.506863 -0.237925
v 0.516947 0.506863 -0.345413
v 0.439627 0.506863 -0.439627
v 0.345413 0.506863 -0.516947
v 0.237925 0.506863 -0.574400
v 0.000000 0.506863 -0.621727
v 0.121293 0.506863 -0.609780
v 0.084913 -0.108103 -0.426885
v 0.000000 -0.108103 -0.435249
v 0.166563 -0.108103 -0.402117
v 0.241811 -0.108103 -0.361896
v 0.307767 -0.108103 -0.307767
v 0.361896 -0.108103 -0.241811
v 0.402117 -0.108103 -0.166562
v 0.426885 -0.108103 -0.084913
v 0.435249 -0.108103 -0.000000
v 0.426886 -0.108103 0.084913
v 0.402117 -0.108103 0.166562
v 0.361896 -0.108103 0.241811
v 0.307767 -0.108103 0.307767
v 0.241811 -0.108103 0.361896
v 0.166563 -0.108103 0.402117
v 0.084913 -0.108103 0.426885
v 0.000000 -0.108103 0.435249
v -0.084913 -0.108103 0.426885
v -0.166562 -0.108103 0.402117
v -0.241811 -0.108103 0.361896
v -0.307767 -0.108103 0.307767
v -0.361896 -0.108103 0.241811
v -0.402117 -0.108103 0.166562
v -0.426885 -0.108103 0.084913
v -0.435249 -0.108103 -0.000000
v -0.426885 -0.108103 -0.084913
v -0.402117 -0.108103 -0.166562
v -0.361896 -0.108103 -0.241811
v -0.307767 -0.108103 -0.307767
v -0.241811 -0.108103 -0.361896
v -0.166562 -0.108103 -0.402117
v -0.084913 -0.108103 -0.426885
v 0.121293 0.506863 -0.609780
v 0.000000 0.506863 -0.621727
v 0.237925 0.506863 -0.574400
v 0.345413 0.506863 -0.516947
v 0.439627 0.506863 -0.439627
v 0.516947 0.506863 -0.345413
v 0.574400 0.506863 -0.237925
v 0.609780 0.506863 -0.121293
v 0.621727 0.506863 -0.000000
v 0.609780 0.506863 0.121293
v 0.574400 0.506863 0.237925
v 0.516947 0.506863 0.345413
v 0.439627 0.506863 0.439627
v 0.345413 0.506863 0.516947
v 0.237925 0.506863 0.574400
v 0.121293 0.506863 0.609780
v 0.000000 0.506863 0.621727
v -0.121293 0.506863 0.609780
v -0.237925 0.506863 0.574400
v -0.345413 0.506863 0.516947
v -0.439627 0.506863 0.439627
v -0.516947 0.506863 0.345413
v -0.574400 0.506863 0.237925
v -0.609780 0.506863 0.121293
v -0.621727 0.506863 -0.000000
v -0.609780 0.506863 -0.121293
v -0.574400 0.506863 -0.237925
v -0.516947 0.506863 -0.345413
v -0.439627 0.506863 -0.439627
v -0.345413 0.506863 -0.516947
v -0.237925 0.506863 -0.574400
v -0.121293 0.506863 -0.609780
v 0.121293 0.906301 -0.609780
v 0.000000 0.906301 -0.621727
v 0.237925 0.906301 -0.574400
v 0.345413 0.906301 -0.516947
v 0.439627 0.906301 -0.439627
v 0.516947 0.906301 -0.345413
v 0.574400 0.906301 -0.237925
v 0.609780 0.906301 -0.121293
v 0.621727 0.906301 -0.000000
v 0.609780 0.906301 0.121293
v 0.574400 0.906301 0.237925
v 0.516947 0.906301 0.345413
v 0.439627 0.906301 0.439627
v 0.345413 0.906301 0.516947
v 0.237925 0.906301 0.574400
v 0.121293 0.906301 0.609780
v 0.000000 0.906301 0.621727
v -0.121293 0.906301 0.609780
v -0.237925 0.906301 0.574400
v -0.345413 0.906301 0.516947
v -0.439627 0.906301 0.439627
v -0.516947 0.906301 0.345413
v -0.574400 0.906301 0.237925
v -0.609780 0.906301 0.121293
v -0.621727 0.906301 -0.000000
v -0.609780 0.906301 -0.121293
v -0.574400 0.906301 -0.237925
v -0.516947 0.906301 -0.345413
v -0.439627 0.906301 -0.439627
v -0.345413 0.906301 -0.516947
v -0.237925 0.906301 -0.574400
v -0.121293 0.906301 -0.609780
v 0.084913 0.906301 -0.426885
v 0.000000 0.906301 -0.435249
v 0.166562 0.906301 -0.402117
v 0.241811 0.906301 -0.361896
v 0.307767 0.906301 -0.307767
v 0.361896 0.906301 -0.241811
v 0.402117 0.906301 -0.166562
v 0.426885 0.906301 -0.084913
v 0.435249 0.906301 -0.000000
v 0.426885 0.906301 0.084913
v 0.402117 0.906301 0.166562
v 0.361896 0.906301 0.241811
v 0.307767 0.906301 0.307767
v 0.241811 0.906301 0.361896
v 0.166562 0.906301 0.402117
v 0.084913 0.906301 0.426885
v 0.000000 0.906301 0.435249
v -0.084913 0.906301 0.426885
v -0.166562 0.906301 0.402117
v -0.241811 0.906301 0.361896
v -0.307767 0.906301 0.307767
v -0.361896 0.906301 0.241811
v -0.402117 0.906301 0.166562
v -0.426885 0.906301 0.084913
v -0.435249 0.906301 -0.000000
v -0.426885 0.906301 -0.084913
v -0.402117 0.906301 -0.166562
v -0.361896 0.906301 -0.241811
v -0.307767 0.906301 -0.307767
v -0.241811 0.906301 -0.361896
v -0.166562 0.906301 -0.402117
v -0.084913 0.906301 -0.426885
v 0.121293 0.906301 -0.609780
v 0.000000 0.906301 -0.621727
v 0.237925 0.906301 -0.574400
v 0.345413 0.906301 -0.516947
v 0.439627 0.906301 -0.439627
v 0.516947 0.906301 -0.345413
v 0.574400 0.906301 -0.237925
v 0.609780 0.906301 -0.121293
v 0.621727 0.906301 -0.000000
v 0.609780 0.906301 0.121293
v 0.574400 0.906301 0.237925
v 0.516947 0.906301 0.345413
v 0.439627 0.906301 0.439627
v 0.345413 0.906301 0.516947
v 0.237925 0.906301 0.574400
v 0.121293 0.906301 0.609780
v 0.000000 0.906301 0.621727
v -0.121293 0.906301 0.609780
v -0.237925 0.906301 0.574400
v -0.345413 0.906301 0.516947
v -0.439627 0.906301 0.439627
v -0.516947 0.906301 0.345413
v -0.574400 0.906301 0.237925
v -0.609780 0.906301 0.121293
v -0.621727 0.906301 -0.000000
v -0.609780 0.906301 -0.121293
v -0.574400 0.906301 -0.237925
v -0.516947 0.906301 -0.345413
v -0.439627 0.906301 -0.439627
v -0.345413 0.906301 -0.516947
v -0.237925 0.906301 -0.574400
v -0.121293 0.906301 -0.609780
v 0.084913 -0.108103 -0.426885
v 0.000000 -0.108103 -0.435249
v 0.166563 -0.108103 -0.402117
v 0.241811 -0.108103 -0.361896
v 0.307767 -0.108103 -0.307767
v 0.361896 -0.108103 -0.241811
v 0.402117 -0.108103 -0.166562
v 0.426885 -0.108103 -0.084913
v 0.435249 -0.108103 -0.000000
v 0.426886 -0.108103 0.084913
v 0.402117 -0.108103 0.166562
v 0.361896 -0.108103 0.241811
v 0.307767 -0.108103 0.307767
v 0.241811 -0.108103 0.361896
v 0.166563 -0.108103 0.402117
v 0.084913 -0.108103 0.426885
v 0.000000 -0.108103 0.435249
v -0.084913 -0.108103 0.426885
v -0.166562 -0.108103 0.402117
v -0.241811 -0.108103 0.361896
v -0.307767 -0.108103 0.307767
v -0.361896 -0.108103 0.241811
v -0.402117 -0.108103 0.166562
v -0.426885 -0.108103 0.084913
v -0.435249 -0.108103 -0.000000
v -0.426885 -0.108103 -0.084913
v -0.402117 -0.108103 -0.166562
v -0.361896 -0.108103 -0.241811
v -0.307767 -0.108103 -0.307767
v -0.241811 -0.108103 -0.361896
v -0.166562 -0.108103 -0.402117
v -0.084913 -0.108103 -0.426885
v 0.084913 0.906301 -0.426885
v 0.000000 0.906301 -0.435249
v 0.166562 0.906301 -0.402117
v 0.241811 0.906301 -0.361896
v 0.307767 0.906301 -0.307767
v 0.361896 0.906301 -0.241811
v 0.402117 0.906301 -0.166562
v 0.426885 0.906301 -0.084913
v 0.435249 0.906301 -0.000000
v 0.426885 0.906301 0.084913
v 0.402117 0.906301 0.166562
v 0.361896 0.906301 0.241811
v 0.307767 0.906301 0.307767
v 0.241811 0.906301 0.361896
v 0.166562 0.906301 0.402117
v 0.084913 0.906301 0.426885
v 0.000000 0.906301 0.435249
v -0.084913 0.906301 0.426885
v -0.166562 0.906301 0.402117
v -0.241811 0.906301 0.361896
v -0.307767 0.906301 0.307767
v -0.361896 0.906301 0.241811
v -0.402117 0.906301 0.166562
v -0.426885 0.906301 0.084913
v -0.435249 0.906301 -0.000000
v -0.426885 0.906301 -0.084913
v -0.402117 0.906301 -0.166562
v -0.361896 0.906301 -0.241811
v -0.307767 0.906301 -0.307767
v -0.241811 0.906301 -0.361896
v -0.166562 0.906301 -0.402117
v -0.084913 0.906301 -0.426885
v 0.000000 0.506863 -0.484809
v 0.094582 0.506863 -0.475494
v 0.185528 0.506863 -0.447905
v 0.269345 0.506863 -0.403104
v 0.342812 0.506863 -0.342812
v 0.403104 0.506863 -0.269345
v 0.447905 0.506863 -0.185528
v 0.475494 0.506863 -0.094582
v 0.484809 0.506863 0.000000
v 0.475494 0.506863 0.094582
v 0.447905 0.506863 0.185528
v 0.403104 0.506863 0.269345
v 0.342812 0.506863 0.342812
v 0.269345 0.506863 0.403104
v 0.185528 0.506863 0.447905
v 0.094582 0.506863 0.475494
v 0.000000 0.506863 0.484809
v -0.094582 0.506863 0.475494
v -0.185528 0.506863 0.447905
v -0.269345 0.506863 0.403104
v -0.342812 0.506863 0.342812
v -0.403104 0.506863 0.269345
v -0.447905 0.506863 0.185528
v -0.475494 0.506863 0.094582
v -0.484809 0.506863 0.000000
v -0.475494 0.506863 -0.094582
v -0.447905 0.506863 -0.185528
v -0.403104 0.506863 -0.269345
v -0.342812 0.506863 -0.342812
v -0.269345 0.506863 -0.403104
v -0.185528 0.506863 -0.447905
v -0.094582 0.506863 -0.475494
v 0.000000 -0.506863 -0.484809
v 0.094582 -0.506863 -0.475494
v 0.185528 -0.506863 -0.447905
v 0.269345 -0.506863 -0.403104
v 0.342812 -0.506863 -0.342812
v 0.403104 -0.506863 -0.269345
v 0.447905 -0.506863 -0.185528
v 0.475494 -0.506863 -0.094582
v 0.484809 -0.506863 0.000000
v 0.475494 -0.506863 0.094582
v 0.447905 -0.506863 0.185528
v 0.403104 -0.506863 0.269345
v 0.342812 -0.506863 0.342812
v 0.269345 -0.506863 0.403104
v 0.185528 -0.506863 0.447905
v 0.094582 -0.506863 0.475494
v 0.000000 -0.506863 0.484809
v -0.094582 -0.506863 0.475494
v -0.185528 -0.506863 0.447905
v -0.269345 -0.506863 0.403104
v -0.342812 -0.506863 0.342812
v -0.403104 -0.506863 0.269345
v -0.447905 -0.506863 0.185528
v -0.475494 -0.506863 0.094582
v -0.484809 -0.506863 0.000000
v -0.475494 -0.506863 -0.094582
v -0.447905 -0.506863 -0.185528
v -0.403104 -0.506863 -0.269345
v -0.342812 -0.506863 -0.342812
v -0.269345 -0.506863 -0.403104
v -0.185528 -0.506863 -0.447905
v -0.094582 -0.506863 -0.475494
v 0.000000 0.506863 -0.484809
v 0.094582 0.506863 -0.475494
v 0.185528 0.506863 -0.447905
v 0.269345 0.506863 -0.403104
v 0.342812 0.506863 -0.342812
v 0.403104 0.506863 -0.269345
v 0.447905 0.506863 -0.185528
v 0.475494 0.506863 -0.094582
v 0.484809 0.506863 0.000000
v 0.475494 0.506863 0.094582
v 0.447905 0.506863 0.185528
v 0.403104 0.506863 0.269345
v 0.342812 0.506863 0.342812
v 0.269345 0.506863 0.403104
v 0.185528 0.506863 0.447905
v 0.094582 0.506863 0.475494
v 0.000000 0.506863 0.484809
v -0.094582 0.506863 0.475494
v -0.185528 0.506863 0.447905
v -0.269345 0.506863 0.403104
v -0.342812 0.506863 0.342812
v -0.403104 0.506863 0.269345
v -0.447905 0.506863 0.185528
v -0.475494 0.506863 0.094582
v -0.484809 0.506863 0.000000
v -0.475494 0.506863 -0.094582
v -0.447905 0.506863 -0.185528
v -0.403104 0.506863 -0.269345
v -0.342812 0.506863 -0.342812
v -0.269345 0.506863 -0.403104
v -0.185528 0.506863 -0.447905
v -0.094582 0.506863 -0.475494
vn 0.9239 -0.0000 0.3827
vn 0.9808 -0.0000 0.1951
vn 0.8315 -0.0000 0.5556
vn 0.7071 -0.0000 0.7071
vn 0.5556 -0.0000 0.8315
vn 0.3827 -0.0000 0.9239
vn 0.1951 -0.0000 0.9808
vn -0.0000 -0.0000 1.0000
vn -0.1951 -0.0000 0.9808
vn -0.3827 -0.0000 0.9239
vn -0.5556 -0.0000 0.8315
vn -0.7071 -0.0000 0.7071
vn -0.8315 -0.0000 0.5556
vn -0.9239 -0.0000 0.3827
vn -0.9808 -0.0000 0.1951
vn -1.0000 -0.0000 -0.0000
vn -0.9808 -0.0000 -0.1951
vn -0.9239 -0.0000 -0.3827
vn -0.8315 -0.0000 -0.5556
vn -0.7071 -0.0000 -0.7071
vn -0.5556 -0.0000 -0.8315
vn -0.3827 -0.0000 -0.9239
vn -0.1951 -0.0000 -0.9808
vn -0.0000 -0.0000 -1.0000
vn 0.1951 -0.0000 -0.9808
vn 0.3827 -0.0000 -0.9239
vn 0.5556 -0.0000 -0.8315
vn 0.7071 -0.0000 -0.7071
vn 0.8315 -0.0000 -0.5556
vn 0.9239 -0.0000 -0.3827
vn 0.9808 -0.0000 -0.1951
vn -0.0000 -1.0000 -0.0000
vn 1.0000 -0.0000 -0.0000
vn -0.0000 1.0000 -0.0000
s 1
f 331//1 362//2 363//1
f 364//3 331//1 363//1
f 365//4 332//3 364//3
f 366//5 333//4 365//4
f 367//6 334//5 366//5
f 368//7 335//6 367//6
f 369//8 336//7 368//7
f 370//9 337//8 369//8
f 371//10 338//9 370//9
f 372//11 339//10 371//10
f 373//12 340//11 372//11
f 374//13 341//12 373//12
f 375//14 342//13 374//13
f 376//15 343//14 375//14
f 377//16 344//15 376//15
f 378//17 345//16 377//16
f 379//18 346//17 378//17
f 380//19 347//18 379//18
f 381//20 348//19 380//19
f 382//21 349//20 381//20
f 383//22 350//21 382//21
f 384//23 351//22 383//22
f 353//24 352//23 384//23
f 354//25 321//24 353//24
f 355//26 322//25 354//25
f 356//27 323//26 355//26
f 357//28 324//27 356//27
f 358//29 325//28 357//28
f 359//30 326//29 358//29
f 360//31 327//30 359//30
f 298//32 54//32 299//32
f 361//33 328//31 360//31
f 330//2 361//33 362//2
f 16//32 24//32 32//32
f 54//32 300//32 299//32
f 300//32 52//32 301//32
f 52//32 302//32 301//32
f 51//32 303//32 302//32
f 50//32 304//32 303//32
f 49//32 305//32 304//32
f 48//32 306//32 305//32
f 47//32 307//32 306//32
f 46//32 308//32 307//32
f 308//32 44//32 309//32
f 44//32 310//32 309//32
f 43//32 311//32 310//32
f 42//32 312//32 311//32
f 41//32 313//32 312//32
f 40//32 314//32 313//32
f 39//32 315//32 314//32
f 38//32 316//32 315//32
f 316//32 36//32 317//32
f 36//32 318//32 317//32
f 35//32 319//32 318//32
f 34//32 320//32 319//32
f 33//32 289//32 320//32
f 63//32 290//32 289//32
f 64//32 291//32 290//32
f 62//32 292//32 291//32
f 292//32 60//32 293//32
f 60//32 294//32 293//32
f 59//32 295//32 294//32
f 295//32 57//32 296//32
f 296//32 56//32 297//32
f 203//34 170//34 171//34
f 171//34 204//34 203//34
f 172//34 205//34 204//34
f 205//34 174//34 206//34
f 174//34 207//34 206//34
f 175//34 208//34 207//34
f 208//34 177//34 209//34
f 177//34 210//34 209//34
f 178//34 211//34 210//34
f 179//34 212//34 211//34
f 180//34 213//34 212//34
f 213//34 182//34 214//34
f 182//34 215//34 214//34
f 183//34 216//34 215//34
f 184//34 217//34 216//34
f 185//34 218//34 217//34
f 186//34 219//34 218//34
f 187//34 220//34 219//34
f 188//34 221//34 220//34
f 221//34 190//34 222//34
f 190//34 223//34 222//34
f 191//34 224//34 223//34
f 224//34 162//34 194//34
f 162//34 193//34 194//34
f 161//34 195//34 193//34
f 163//34 196//34 195//34
f 164//34 197//34 196//34
f 197//34 166//34 198//34
f 166//34 199//34 198//34
f 199//34 168//34 200//34
f 200//34 169//34 201//34
f 201//34 170//34 202//34
f 239//22 272//23 271//22
f 270//21 239//22 271//22
f 269//20 238//21 270//21
f 268//19 237//20 269//20
f 267//18 236//19 268//19
f 266//17 235//18 267//18
f 265//16 234//17 266//17
f 264//15 233//16 265//16
f 263//14 232//15 264//15
f 262//13 231//14 263//14
f 261//12 230//13 262//13
f 260//11 229//12 261//12
f 259//10 228//11 260//11
f 257//9 227//10 259//10
f 258//8 225//9 257//9
f 258//8 256//7 226//8
f 287//6 256//7 288//7
f 286//5 255//6 287//6
f 285//4 254//5 286//5
f 284//3 253//4 285//4
f 283//1 252//3 284//3
f 282//2 251//1 283//1
f 281//33 250//2 282//2
f 280//31 249//33 281//33
f 279//30 248//31 280//31
f 278//29 247//30 279//30
f 277//28 246//29 278//29
f 276//27 245//28 277//28
f 275//26 244//27 276//27
f 274//25 243//26 275//26
f 273//24 242//25 274//25
f 83//34 75//34 67//34
f 135//30 104//31 103//30
f 134//29 103//30 102//29
f 133//28 102//29 101//28
f 132//27 101//28 100//27
f 131//26 100//27 99//26
f 129//25 99//26 97//25
f 130//24 97//25 98//24
f 160//23 98//24 128//23
f 159//22 128//23 127//22
f 158//21 127//22 126//21
f 157//20 126//21 125//20
f 156//19 125//20 124//19
f 155//18 124//19 123//18
f 154//17 123//18 122//17
f 153//16 122//17 121//16
f 152//15 121//16 120//15
f 151//14 120//15 119//14
f 150//13 119//14 118//13
f 149//12 118//13 117//12
f 148//11 117//12 116//11
f 147//10 116//11 115//10
f 146//9 115//10 114//9
f 145//8 114//9 113//8
f 144//7 113//8 112//7
f 143//6 112//7 111//6
f 142//5 111//6 110//5
f 141//4 110//5 109//4
f 140//3 109//4 108//3
f 139//1 108//3 107//1
f 138//2 107//1 106//2
f 137//33 106//2 105//33
f 136//31 105//33 104//31
f 241//24 272//23 240//23
f 297//32 55//32 298//32
f 331//1 330//2 362//2
f 364//3 332//3 331//1
f 365//4 333//4 332//3
f 366//5 334//5 333//4
f 367//6 335//6 334//5
f 368//7 336//7 335//6
f 369//8 337//8 336//7
f 370//9 338//9 337//8
f 371//10 339//10 338//9
f 372//11 340//11 339//10
f 373//12 341//12 340//11
f 374//13 342//13 341//12
f 375//14 343//14 342//13
f 376//15 344//15 343//14
f 377//16 345//16 344//15
f 378//17 346//17 345//16
f 379//18 347//18 346//17
f 380//19 348//19 347//18
f 381//20 349//20 348//19
f 382//21 350//21 349//20
f 383//22 351//22 350//21
f 384//23 352//23 351//22
f 353//24 321//24 352//23
f 354//25 322//25 321//24
f 355//26 323//26 322//25
f 356//27 324//27 323//26
f 357//28 325//28 324//27
f 358//29 326//29 325//28
f 359//30 327//30 326//29
f 360//31 328//31 327//30
f 298//32 55//32 54//32
f 361//33 329//33 328//31
f 330//2 329//33 361//33
f 32//32 1//32 2//32
f 2//32 3//32 4//32
f 4//32 5//32 6//32
f 6//32 7//32 8//32
f 8//32 9//32 10//32
f 10//32 11//32 12//32
f 12//32 13//32 14//32
f 14//32 15//32 16//32
f 16//32 17//32 18//32
f 18//32 19//32 20//32
f 20//32 21//32 22//32
f 22//32 23//32 24//32
f 24//32 25//32 26//32
f 26//32 27//32 28//32
f 28//32 29//32 30//32
f 30//32 31//32 32//32
f 32//32 2//32 4//32
f 4//32 6//32 8//32
f 8//32 10//32 12//32
f 12//32 14//32 16//32
f 16//32 18//32 20//32
f 20//32 22//32 24//32
f 24//32 26//32 28//32
f 28//32 30//32 32//32
f 32//32 4//32 8//32
f 8//32 12//32 16//32
f 16//32 20//32 24//32
f 24//32 28//32 32//32
f 32//32 8//32 16//32
f 54//32 53//32 300//32
f 300//32 53//32 52//32
f 52//32 51//32 302//32
f 51//32 50//32 303//32
f 50//32 49//32 304//32
f 49//32 48//32 305//32
f 48//32 47//32 306//32
f 47//32 46//32 307//32
f 46//32 45//32 308//32
f 308//32 45//32 44//32
f 44//32 43//32 310//32
f 43//32 42//32 311//32
f 42//32 41//32 312//32
f 41//32 40//32 313//32
f 40//32 39//32 314//32
f 39//32 38//32 315//32
f 38//32 37//32 316//32
f 316//32 37//32 36//32
f 36//32 35//32 318//32
f 35//32 34//32 319//32
f 34//32 33//32 320//32
f 33//32 63//32 289//32
f 63//32 64//32 290//32
f 64//32 62//32 291//32
f 62//32 61//32 292//32
f 292//32 61//32 60//32
f 60//32 59//32 294//32
f 59//32 58//32 295//32
f 295//32 58//32 57//32
f 296//32 57//32 56//32
f 203//34 202//34 170//34
f 171//34 172//34 204//34
f 172//34 173//34 205//34
f 205//34 173//34 174//34
f 174//34 175//34 207//34
f 175//34 176//34 208//34
f 208//34 176//34 177//34
f 177//34 178//34 210//34
f 178//34 179//34 211//34
f 179//34 180//34 212//34
f 180//34 181//34 213//34
f 213//34 181//34 182//34
f 182//34 183//34 215//34
f 183//34 184//34 216//34
f 184//34 185//34 217//34
f 185//34 186//34 218//34
f 186//34 187//34 219//34
f 187//34 188//34 220//34
f 188//34 189//34 221//34
f 221//34 189//34 190//34
f 190//34 191//34 223//34
f 191//34 192//34 224//34
f 224//34 192//34 162//34
f 162//34 161//34 193//34
f 161//34 163//34 195//34
f 163//34 164//34 196//34
f 164//34 165//34 197//34
f 197//34 165//34 166//34
f 166//34 167//34 199//34
f 199//34 167//34 168//34
f 200//34 168//34 169//34
f 201//34 169//34 170//34
f 239//22 240//23 272//23
f 270//21 238//21 239//22
f 269//20 237//20 238//21
f 268//19 236//19 237//20
f 267//18 235//18 236//19
f 266//17 234//17 235//18
f 265//16 233//16 234//17
f 264//15 232//15 233//16
f 263//14 231//14 232//15
f 262//13 230//13 231//14
f 261//12 229//12 230//13
f 260//11 228//11 229//12
f 259//10 227//10 228//11
f 257//9 225//9 227//10
f 258//8 226//8 225//9
f 258//8 288//7 256//7
f 287//6 255//6 256//7
f 286//5 254//5 255//6
f 285//4 253//4 254//5
f 284//3 252//3 253//4
f 283//1 251//1 252//3
f 282//2 250//2 251//1
f 281//33 249//33 250//2
f 280//31 248//31 249//33
f 279//30 247//30 248//31
f 278//29 246//29 247//30
f 277//28 245//28 246//29
f 276//27 244//27 245//28
f 275//26 243//26 244//27
f 274//25 242//25 243//26
f 273//24 241//24 242//25
f 67//34 65//34 66//34
f 66//34 96//34 95//34
f 95//34 94//34 93//34
f 93//34 92//34 91//34
f 91//34 90//34 89//34
f 89//34 88//34 87//34
f 87//34 86//34 85//34
f 85//34 84//34 83//34
f 83//34 82//34 81//34
f 81//34 80//34 79//34
f 79//34 78//34 77//34
f 77//34 76//34 75//34
f 75//34 74//34 73//34
f 73//34 72//34 71//34
f 71//34 70//34 69//34
f 69//34 68//34 67//34
f 67//34 66//34 95//34
f 95//34 93//34 91//34
f 91//34 89//34 87//34
f 87//34 85//34 83//34
f 83//34 81//34 79//34
f 79//34 77//34 75//34
f 75//34 73//34 71//34
f 71//34 69//34 67//34
f 67//34 95//34 91//34
f 91//34 87//34 83//34
f 83//34 79//34 75//34
f 75//34 71//34 67//34
f 67//34 91//34 83//34
f 135//30 136//31 104//31
f 134//29 135//30 103//30
f 133//28 134//29 102//29
f 132//27 133//28 101//28
f 131//26 132//27 100//27
f 129//25 131//26 99//26
f 130//24 129//25 97//25
f 160//23 130//24 98//24
f 159//22 160//23 128//23
f 158//21 159//22 127//22
f 157//20 158//21 126//21
f 156//19 157//20 125//20
f 155//18 156//19 124//19
f 154//17 155//18 123//18
f 153//16 154//17 122//17
f 152//15 153//16 121//16
f 151//14 152//15 120//15
f 150//13 151//14 119//14
f 149//12 150//13 118//13
f 148//11 149//12 117//12
f 147//10 148//11 116//11
f 146//9 147//10 115//10
f 145//8 146//9 114//9
f 144//7 145//8 113//8
f 143//6 144//7 112//7
f 142//5 143//6 111//6
f 141//4 142//5 110//5
f 140//3 141//4 109//4
f 139//1 140//3 108//3
f 138//2 139//1 107//1
f 137//33 138//2 106//2
f 136//31 137//33 105//33
f 241//24 273//24 272//23
f 297//32 56//32 55//32
